<svg xmlns="http://www.w3.org/2000/svg" width="26" height="25">
    <path fill-rule="evenodd" fill="#FFF" d="M12.849 0c6.885 0 12.465 5.597 12.465 12.5S19.734 25 12.849 25C5.965 25 .384 19.403.384 12.5S5.965 0 12.849 0z"/>
    <path fill-rule="evenodd" fill="#559EAD" d="M19.591 15.371c-.092 2.077-1.035 3.234-2.285 3.737-.919.368-1.816.366-4.416.366-2.534 0-4.307.177-5.61-1.172-1.277-1.322-1.131-3.091-1.131-5.809 0-2.655-.166-4.466 1.131-5.809.777-.804 1.74-1.077 2.831-1.13 1.243-.057 4.317-.06 5.558 0 2.54.122 3.811 1.609 3.922 4.061.055 1.287.058 4.47 0 5.756zm-1.174-2.878c0-1.864-.007-2.085-.039-2.821-.142-3.229-2.492-2.903-5.488-2.903l-.025-.018c-1.803 0-2.014.009-2.73.035-3.117.166-2.798 2.482-2.798 5.699 0 2.377-.172 3.944.776 4.92.822.855 1.95.812 4.76.812 2.731 0 3.91.078 4.761-.802.836-.871.783-2.045.783-4.922zm-1.928-2.888c-.447 0-.809-.376-.809-.838 0-.462.363-.837.809-.837.445-.001.809.375.809.837 0 .463-.363.838-.809.838zm-3.599 6.473c-1.911 0-3.461-1.604-3.461-3.585 0-1.979 1.548-3.584 3.461-3.584 1.911 0 3.462 1.603 3.462 3.584 0 1.979-1.549 3.585-3.462 3.585zm0-5.912c-1.241 0-2.247 1.042-2.247 2.327 0 1.286 1.006 2.328 2.247 2.328 1.242 0 2.247-1.042 2.247-2.328 0-1.285-1.005-2.327-2.247-2.327z"/>
</svg>
