<svg xmlns="http://www.w3.org/2000/svg" width="196" height="149">
    <defs>
        <linearGradient id="9knd40ymea" x1="0%" x2="0%" y1="100%" y2="0%">
            <stop offset="0%" stop-color="#944867"/>
            <stop offset="100%" stop-color="#E184A9"/>
        </linearGradient>
    </defs>
    <path fill-rule="evenodd" fill="#E184A9" d="M25.955 51.687c16.98-9.851 37.192-8.96 52.857.571 28.248 14.562 47.221.402 56.133-29.581l.048-.165c2.168-7.458 7.088-14.121 14.313-18.313C164.196-4.44 183.235.687 191.83 15.65c8.595 14.965 3.494 34.098-11.395 42.738-7.223 4.193-15.426 5.141-22.937 3.301v.002c-.055-.015-.112-.028-.166-.042-30.291-7.235-51.982 2.2-53.556 34.064.381 18.398-8.957 36.438-25.937 46.288-24.816 14.401-56.548 5.855-70.875-19.086C-7.363 97.976 1.14 66.086 25.955 51.687z"/>
    <path fill="url(#9knd40ymea)" d="M25.955 51.687c16.98-9.851 37.192-8.96 52.857.571 28.248 14.562 47.221.402 56.133-29.581l.048-.165c2.168-7.458 7.088-14.121 14.313-18.313C164.196-4.44 183.235.687 191.83 15.65c8.595 14.965 3.494 34.098-11.395 42.738-7.223 4.193-15.426 5.141-22.937 3.301v.002c-.055-.015-.112-.028-.166-.042-30.291-7.235-51.982 2.2-53.556 34.064.381 18.398-8.957 36.438-25.937 46.288-24.816 14.401-56.548 5.855-70.875-19.086C-7.363 97.976 1.14 66.086 25.955 51.687z"/>
</svg>
