<svg xmlns="http://www.w3.org/2000/svg" width="568" height="431">
    <defs>
        <linearGradient id="dp1sce69ca" x1="0%" x2="0%" y1="100%" y2="0%">
            <stop offset="0%" stop-color="#944867"/>
            <stop offset="100%" stop-color="#E184A9"/>
        </linearGradient>
    </defs>
    <path fill-rule="evenodd" fill="#E184A9" d="M491.943 281.203c-49.122 28.37-107.597 25.803-152.917-1.646-81.722-41.939-136.611-1.157-162.393 85.196-.042.157-.092.319-.14.475-6.271 21.479-20.504 40.668-41.407 52.743-43.078 24.877-98.156 10.112-123.023-32.98-24.865-43.099-10.107-98.204 32.965-123.089 20.897-12.076 44.629-14.806 66.359-9.506l.001-.005c.158.042.322.079.479.121 87.632 20.836 150.386-6.335 154.937-98.108-1.102-52.987 25.916-104.941 75.038-133.311C413.634-20.381 505.437 4.23 546.883 76.061c41.448 71.826 16.85 163.674-54.94 205.142z"/>
    <path fill="url(#dp1sce69ca)" d="M491.943 281.203c-49.122 28.37-107.597 25.803-152.917-1.646-81.722-41.939-136.611-1.157-162.393 85.196-.042.157-.092.319-.14.475-6.271 21.479-20.504 40.668-41.407 52.743-43.078 24.877-98.156 10.112-123.023-32.98-24.865-43.099-10.107-98.204 32.965-123.089 20.897-12.076 44.629-14.806 66.359-9.506l.001-.005c.158.042.322.079.479.121 87.632 20.836 150.386-6.335 154.937-98.108-1.102-52.987 25.916-104.941 75.038-133.311C413.634-20.381 505.437 4.23 546.883 76.061c41.448 71.826 16.85 163.674-54.94 205.142z"/>
</svg>
