<svg xmlns="http://www.w3.org/2000/svg" width="634" height="318">
    <defs>
        <linearGradient id="syyf46a0ga" x1="0%" x2="0%" y1="100%" y2="0%">
            <stop offset="0%" stop-color="#944867"/>
            <stop offset="100%" stop-color="#E184A9"/>
        </linearGradient>
    </defs>
    <path fill-rule="evenodd" fill="#E184A9" d="M83.953 166.159c54.924-31.668 120.305-28.804 170.979 1.838 91.374 46.814 152.746 1.29 181.573-95.101.047-.176.103-.356.156-.531 7.012-23.975 22.926-45.395 46.298-58.874 48.165-27.769 109.749-11.287 137.553 36.815 27.803 48.108 11.301 109.62-36.859 137.398-23.365 13.479-49.899 16.527-74.196 10.61l-.002.006c-.175-.047-.359-.089-.535-.135-57.726-13.703-105.798-8.805-136.595 18.481-29.335 25.992-35.812 67.982-36.642 91.032a143.562 143.562 0 0 0-.092 5.106c0 1.218.379 3.044-.491 4.196.91-.012-333.022 0-334.986.346-1.637-64.527 34.771-122.895 83.839-151.187z"/>
    <path fill="url(#syyf46a0ga)" d="M83.953 166.159c54.924-31.668 120.305-28.804 170.979 1.838 91.374 46.814 152.746 1.29 181.573-95.101.047-.176.103-.356.156-.531 7.012-23.975 22.926-45.395 46.298-58.874 48.165-27.769 109.749-11.287 137.553 36.815 27.803 48.108 11.301 109.62-36.859 137.398-23.365 13.479-49.899 16.527-74.196 10.61l-.002.006c-.175-.047-.359-.089-.535-.135-57.726-13.703-105.798-8.805-136.595 18.481-29.335 25.992-35.812 67.982-36.642 91.032a143.562 143.562 0 0 0-.092 5.106c0 1.218.379 3.044-.491 4.196.91-.012-333.022 0-334.986.346-1.637-64.527 34.771-122.895 83.839-151.187z"/>
</svg>
