<svg xmlns="http://www.w3.org/2000/svg" width="575" height="543">
    <defs>
        <linearGradient id="2gwtsza49a" x1="100%" x2="0%" y1="0%" y2="0%">
            <stop offset="0%" stop-color="#36405A"/>
            <stop offset="0%" stop-color="#36405A"/>
            <stop offset="100%" stop-color="#576EAA"/>
        </linearGradient>
    </defs>
    <path fill-rule="evenodd" fill="#36405A" d="M287.5 0C446.282 0 575 128.718 575 287.5c0 110.497-62.336 206.435-153.76 254.565.831-1.59-268.615-.641-268.69-.641C61.786 493.086 0 397.508 0 287.5 0 128.718 128.718 0 287.5 0z"/>
    <path fill="url(#2gwtsza49a)" d="M287.5 0C446.282 0 575 128.718 575 287.5c0 110.497-62.336 206.435-153.76 254.565.831-1.59-268.615-.641-268.69-.641C61.786 493.086 0 397.508 0 287.5 0 128.718 128.718 0 287.5 0z"/>
</svg>
