<svg xmlns="http://www.w3.org/2000/svg" width="26" height="25">
    <path fill-rule="evenodd" fill="#FFF" d="M13.285 0c6.891 0 12.477 5.597 12.477 12.5S20.176 25 13.285 25 .808 19.403.808 12.5 6.394 0 13.285 0z"/>
    <path fill-rule="evenodd" fill="#559EAD" d="M18.985 9.767a5.753 5.753 0 0 0 1.42-1.517v-.001a5.785 5.785 0 0 1-1.633.462 2.89 2.89 0 0 0 1.247-1.616 5.551 5.551 0 0 1-1.797.708 2.802 2.802 0 0 0-2.07-.925c-1.569 0-2.833 1.314-2.833 2.923 0 .232.019.455.066.667-2.356-.119-4.442-1.283-5.842-3.057a3.006 3.006 0 0 0-.389 1.477c0 1.012.505 1.909 1.259 2.429a2.742 2.742 0 0 1-1.28-.36v.032c0 1.421.982 2.6 2.271 2.872a2.75 2.75 0 0 1-.743.097c-.182 0-.365-.011-.537-.05.367 1.157 1.41 2.008 2.648 2.036a5.585 5.585 0 0 1-4.192 1.207 7.812 7.812 0 0 0 4.348 1.311c5.002 0 8.262-4.303 8.057-8.695z"/>
</svg>
